<?xml version="1.0" encoding="UTF-8" standalone="no"?>
<!-- Created with Inkscape (http://www.inkscape.org/) -->

<svg
   width="150mm"
   height="150.00014mm"
   viewBox="0 0 150 150.00014"
   version="1.1"
   id="svg5"
   inkscape:version="1.1.1 (3bf5ae0d25, 2021-09-20)"
   sodipodi:docname="mkcarl logo.svg"
   xmlns:inkscape="http://www.inkscape.org/namespaces/inkscape"
   xmlns:sodipodi="http://sodipodi.sourceforge.net/DTD/sodipodi-0.dtd"
   xmlns="http://www.w3.org/2000/svg"
   xmlns:svg="http://www.w3.org/2000/svg">
  <sodipodi:namedview
     id="namedview7"
     pagecolor="#ffffff"
     bordercolor="#666666"
     borderopacity="1.0"
     inkscape:pageshadow="2"
     inkscape:pageopacity="0.0"
     inkscape:pagecheckerboard="0"
     inkscape:document-units="mm"
     showgrid="false"
     showguides="true"
     inkscape:guide-bbox="true"
     inkscape:zoom="0.35355339"
     inkscape:cx="-448.3057"
     inkscape:cy="889.54033"
     inkscape:window-width="1920"
     inkscape:window-height="1017"
     inkscape:window-x="-8"
     inkscape:window-y="-8"
     inkscape:window-maximized="1"
     inkscape:current-layer="g1010" />
  <defs
     id="defs2" />
  <g
     inkscape:label="Layer 1"
     inkscape:groupmode="layer"
     id="layer1"
     transform="translate(-33.6889,-76.125566)">
    <g
       id="g13515"
       transform="matrix(0.88467528,0,0,1,19.333805,-32.808333)">
      <g
         id="g881">
        <g
           id="g1010">
          <path
             id="rect31"
             style="fill:#d2ddde;stroke-width:1.05159"
             d="M 168.2207 -0.021484375 C 167.87668 -0.020529764 167.53138 -0.013827756 167.18359 0 L 66.873047 0 L 0 0 L 0 75.589844 L 0 491.33789 L 0 566.92969 L 66.873047 566.92969 L 200.61914 566.92969 L 200.61914 491.33789 L 200.54883 491.33789 C 200.63646 452.11714 200.64708 412.89354 200.61914 373.66992 C 202.87704 376.73422 205.13375 379.79781 207.36914 382.88086 C 220.9612 398.44488 230.07156 420.91431 248.97266 428.9082 C 275.88164 439.40482 302.53002 402.06826 287.62695 374.58984 C 259.03526 333.34454 228.14016 294.02096 198.64453 253.5293 C 196.00747 248.46665 192.41765 244.10236 188.25977 240.66602 C 188.25516 240.66221 188.2507 240.6581 188.24609 240.6543 C 183.10027 235.62284 176.63349 232.40636 169.24609 232.15234 C 168.56576 232.12895 167.87917 232.13055 167.18359 232.1582 C 165.4408 232.11639 163.71552 232.25705 162.01953 232.54688 C 156.52896 233.35825 151.2031 235.82234 146.54883 240.24414 C 145.89114 240.83086 145.2514 241.44127 144.63281 242.08008 C 144.62729 242.08564 144.62076 242.09014 144.61523 242.0957 C 142.81558 243.90888 141.22737 245.94432 139.85938 248.14648 C 139.85861 248.14772 139.85819 248.14916 139.85742 248.15039 C 136.54635 253.36909 134.38983 259.52031 133.91797 266.07812 C 133.91701 266.25325 133.91696 266.42839 133.91602 266.60352 C 133.72812 268.8717 133.71684 271.156 133.88672 273.42578 C 133.54521 344.44658 133.85718 415.48638 133.74609 486.51367 C 133.86902 488.0987 133.87123 489.72586 133.91797 491.33789 L 66.873047 491.33789 L 66.873047 75.589844 L 133.99219 75.589844 C 133.99206 75.604183 133.99037 75.618473 133.99023 75.632812 C 133.94613 80.447493 133.77574 85.289504 133.63867 90.126953 C 133.50906 94.68352 133.41731 99.23418 133.50391 103.75 C 133.50677 103.89839 133.50846 104.047 133.51172 104.19531 C 133.56052 106.42845 133.65339 108.65338 133.81055 110.86523 C 133.81082 110.86912 133.81027 110.87307 133.81055 110.87695 C 133.81687 110.9657 133.82745 111.05387 133.83398 111.14258 C 133.9961 113.34867 134.22285 115.54128 134.5293 117.71875 C 134.54811 117.85234 134.56846 117.98567 134.58789 118.11914 C 134.90299 120.28538 135.30004 122.43603 135.79492 124.56641 C 135.81776 124.66471 135.84002 124.76311 135.86328 124.86133 C 136.38706 127.07338 137.01189 129.26446 137.76953 131.42969 C 138.53066 133.23952 139.41041 134.91885 140.38867 136.46875 C 140.39048 136.47161 140.39077 136.47566 140.39258 136.47852 C 140.39305 136.47927 140.39406 136.47972 140.39453 136.48047 C 140.39582 136.48251 140.39715 136.48429 140.39844 136.48633 C 141.37745 138.03531 142.45665 139.45555 143.62109 140.74805 C 143.62232 140.74941 143.62377 140.75059 143.625 140.75195 C 144.78757 142.0419 146.03569 143.20245 147.35156 144.24023 C 147.35654 144.24416 147.36025 144.24998 147.36523 144.25391 C 147.36563 144.25422 147.36679 144.2536 147.36719 144.25391 C 147.37164 144.25741 147.3764 144.26017 147.38086 144.26367 C 148.69877 145.30038 150.08369 146.21238 151.52344 147 C 152.968 147.79026 154.46648 148.45705 156.00195 149 C 157.53742 149.54295 159.11051 149.96261 160.70508 150.26172 C 162.29965 150.56083 163.91524 150.73815 165.53711 150.79688 C 167.15898 150.8556 168.78693 150.79538 170.4043 150.61719 C 172.02104 150.43906 173.62852 150.14383 175.20898 149.73242 C 175.20958 149.73227 175.21034 149.73258 175.21094 149.73242 C 176.792 149.32077 178.34642 148.79204 179.85938 148.15039 C 181.37233 147.50874 182.84282 146.75295 184.25586 145.88477 C 185.6689 145.01658 187.02336 144.03657 188.30469 142.94531 C 189.58601 141.85405 190.7943 140.65267 191.91211 139.3418 C 193.02992 138.03093 194.05798 136.611 194.98047 135.08398 C 195.90296 133.55696 196.72065 131.9233 197.41602 130.18359 C 197.41624 130.18303 197.41579 130.1822 197.41602 130.18164 C 198.11108 128.44243 198.68479 126.59674 199.12109 124.64844 C 199.63396 120.57623 199.99894 116.48757 200.25586 112.38672 C 200.25859 112.34313 200.26096 112.29945 200.26367 112.25586 C 200.51313 108.23742 200.65726 104.20783 200.73242 100.16992 C 200.73557 100.0014 200.73537 99.83261 200.73828 99.664062 C 200.87887 91.48381 200.7475 83.272519 200.61914 75.0625 L 200.61914 48.023438 C 201.29674 43.451789 201.2638 38.78569 200.61914 34.242188 L 200.61914 0 L 169.35938 0 C 168.98175 -0.014554327 168.60309 -0.02254546 168.2207 -0.021484375 z "
             transform="matrix(0.29907395,0,0,0.26458333,16.2264,108.9339)" />
          <path
             id="rect9180"
             style="fill:#d2ddde;stroke-width:0.71837"
             d="M 336.03125 -0.56445312 C 333.89299 -0.58137891 331.75808 -0.38150326 329.65234 0 L 267.49219 0 L 267.49219 75.589844 L 368.05859 75.589844 C 391.93233 75.648055 415.808 75.617249 439.68359 75.589844 C 390.66791 120.00637 341.62535 164.38825 292.8125 209.07617 C 285.64332 216.23038 282.73431 225.97876 283.00195 235.74023 C 282.77299 243.57136 284.61713 251.47231 288.72461 258.01758 C 346.14518 335.99542 404.00157 413.57875 461.68164 491.32227 C 443.47017 491.32054 425.2588 491.32551 407.04688 491.34375 L 407.04688 491.33789 L 341.83984 491.33789 C 337.79671 490.57221 333.67066 490.60988 329.65234 491.33789 L 267.49219 491.33789 L 267.49219 566.92969 L 368.63477 566.92969 C 410.98933 567.03019 453.35049 566.83037 495.70508 566.92969 C 507.29108 565.7816 519.78993 567.95827 531.58398 567.02344 C 539.0157 567.76945 545.95425 565.20965 551.70703 560.57422 C 552.7217 559.88896 553.72215 559.14556 554.70312 558.32031 C 561.94325 552.27149 565.67309 543.54042 566.5 534.37695 C 567.92925 525.40112 566.4884 515.9399 561.06641 507.89844 C 560.77452 507.50232 560.47941 507.10899 560.1875 506.71289 C 558.96527 504.70304 557.58572 502.82721 556.05469 501.12695 C 492.07839 414.36046 427.66656 327.98679 363.46875 241.41992 C 364.52471 240.53128 365.56156 239.5877 366.64258 238.77148 C 430.04375 181.08378 493.74083 123.79075 556.95703 65.855469 C 567.22956 54.87427 569.6492 36.645989 563.64648 22.525391 C 559.07839 10.439934 549.59304 0.87004804 536.83789 0.19335938 C 493.5791 -0.10877742 450.31332 -0.037473247 407.04688 0.005859375 L 407.04688 0 L 341.83984 0 C 339.91545 -0.36443976 337.97337 -0.54907994 336.03125 -0.56445312 z "
             transform="matrix(0.29907395,0,0,0.26458333,16.2264,108.9339)" />
          <g
             id="g9900"
             transform="translate(13.758336,-130)"
             style="fill:#ee7d50;fill-opacity:1" />
        </g>
      </g>
    </g>
  </g>
</svg>
